<svg width="85" height="85" viewBox="0 0 85 85" fill="none" xmlns="http://www.w3.org/2000/svg">
<g clip-path="url(#clip0_222_13)">
<path d="M42.5 0C18.5586 0 0 17.5372 0 41.225C0 53.6154 5.07775 64.3218 13.3477 71.7171C14.0416 72.3383 14.4606 73.2089 14.4892 74.1403L14.7206 81.7006C14.7946 84.1118 17.2852 85.681 19.4919 84.7068L27.9275 80.9824C28.6424 80.6672 29.4443 80.6085 30.1976 80.8161C34.074 81.8819 38.1995 82.4497 42.5 82.4497C66.4414 82.4497 85 64.9124 85 41.2247C85 17.5369 66.4414 0 42.5 0Z" fill="url(#paint0_radial_222_13)"/>
<path d="M56.6113 31.1279H48.1445V22.7234C48.1445 21.1764 46.8807 19.9219 45.3223 19.9219H39.6777C38.1193 19.9219 36.8555 21.1764 36.8555 22.7234V31.1279H28.3887C26.8303 31.1279 25.5664 32.3825 25.5664 33.9294V39.5325C25.5664 41.0794 26.8303 42.334 28.3887 42.334H36.8555V61.9446C36.8555 63.4915 38.1193 64.7461 39.6777 64.7461H45.3223C46.8807 64.7461 48.1445 63.4915 48.1445 61.9446V42.334H56.6113C58.1697 42.334 59.4336 41.0794 59.4336 39.5325V33.9294C59.4336 32.3825 58.1697 31.1279 56.6113 31.1279Z" fill="white"/>
</g>
<defs>
<radialGradient id="paint0_radial_222_13" cx="0" cy="0" r="1" gradientUnits="userSpaceOnUse" gradientTransform="translate(3.28028e-06 85) rotate(-46.0809) scale(105.788 105.788)">
<stop stop-color="#0099FF"/>
<stop offset="0.60975" stop-color="#A033FF"/>
<stop offset="0.93482" stop-color="#FF5280"/>
<stop offset="1" stop-color="#FF7061"/>
</radialGradient>
<clipPath id="clip0_222_13">
<rect width="85" height="85" fill="white"/>
</clipPath>
</defs>
</svg>
